<svg width="55" height="44" viewBox="0 0 55 44" fill="none" xmlns="http://www.w3.org/2000/svg">
<path d="M1 8.19079C3.27058 11.2295 5.63197 14.3603 6.63103 14.3603C7.63008 14.3603 10.8997 7.63829 13.1703 3.58665" stroke="#322228" stroke-width="2" stroke-linecap="round"/>
<path d="M1 20.9596C3.27058 23.9983 5.63197 27.1292 6.63103 27.1292C7.63008 27.1292 10.8997 20.4071 13.1703 16.3555" stroke="#322228" stroke-width="2" stroke-linecap="round"/>
<path d="M1 33.8427C3.27058 36.8251 5.63197 39.898 6.63103 39.898C7.63008 39.898 10.8997 33.3004 13.1703 29.3238" stroke="#322228" stroke-width="2" stroke-linecap="round"/>
<path d="M17.5569 8.66063C20.1745 8.52975 22.5474 8.66063 25.4372 8.57589C26.5185 8.57589 27.5766 8.49116 28.6571 8.49116" stroke="#322228" stroke-width="2" stroke-linecap="round"/>
<path d="M17.218 21.3708C20.8667 21.8537 24.6277 21.0733 28.2334 21.7945" stroke="#322228" stroke-width="2" stroke-linecap="round"/>
<path d="M17.8958 34.5893C19.9825 34.3996 22.1474 34.2896 24.2509 34.4387C25.163 34.5033 26.0475 34.6741 26.9624 34.6741" stroke="#322228" stroke-width="2" stroke-linecap="round"/>
<path d="M48.6836 8.58178C48.805 7.94855 49.2821 6.58665 49.2821 6.58665C49.2821 6.58665 50.1799 4.07415 49.056 3.29469C48.6611 3.02085 46.3907 1.72465 43.5052 2.66538C42.8551 2.87732 41.2491 4.3657 40.2611 7.15921C39.2731 9.95271 38.0922 13.4098 34.8455 25.5579C34.4768 26.6937 34.1752 27.7976 33.9493 28.9749C33.9384 30.2871 33.6143 33.0167 33.7352 34.0064C33.8319 34.7986 34.4411 37.1207 34.9856 39.0979C35.3824 40.5383 36.9994 40.8656 37.9367 39.702C39.4719 37.7961 41.3016 35.516 41.3016 35.516C41.3016 35.516 42.3678 33.7924 42.5984 33.2592C42.8821 32.6033 43.5017 31.1978 43.5017 31.1978C43.5017 31.1978 43.5017 31.1978 44.3014 28.3847C44.3014 28.3847 45.0736 26.1802 45.311 24.9425L47.1604 16.9712C47.4945 15.2295 48.0534 13.6985 48.3843 11.9735" stroke="#322228" stroke-width="3" stroke-linecap="round"/>
<path d="M48.4825 14.0218C48.9363 14.0577 49.856 14.0489 49.856 14.0489C49.856 14.0489 51.1823 13.9642 51.6242 14.0489C52.0447 14.1296 52.232 13.9904 52.6217 14.1779C53.9185 14.5769 52.6972 17.4757 52.6217 17.8689C52.294 19.5774 51.6242 20.7618 51.6242 20.7618L50.2276 24.0538" stroke="#322228" stroke-width="2" stroke-linecap="round"/>
</svg>
